<svg width="164" height="20" viewBox="0 0 164 20" fill="none" xmlns="http://www.w3.org/2000/svg">
<g clip-path="url(#clip0_414_13905)">
<path d="M162.903 17.9089C162.326 17.9089 161.859 17.4421 161.859 16.8653C161.859 16.2884 162.326 15.8216 162.903 15.8216C163.48 15.8216 163.947 16.2884 163.947 16.8653C163.947 17.4421 163.48 17.9089 162.903 17.9089ZM162.903 16.0038C162.429 16.0038 162.042 16.3909 162.042 16.8653C162.042 17.3397 162.429 17.7267 162.903 17.7267C163.377 17.7267 163.765 17.3397 163.765 16.8653C163.765 16.3909 163.377 16.0038 162.903 16.0038Z" fill="black"/>
<path d="M163.074 16.9336C163.108 16.9336 163.142 16.926 163.173 16.9146C163.218 16.9032 163.26 16.8805 163.298 16.8539C163.332 16.8273 163.362 16.7932 163.381 16.7476C163.4 16.7059 163.412 16.6527 163.412 16.592C163.412 16.4896 163.378 16.4099 163.313 16.3491C163.249 16.2884 163.139 16.2619 162.979 16.2619H162.452V17.4573H162.649V16.9336H162.862L163.188 17.4573H163.423L163.078 16.9298L163.074 16.9336ZM162.649 16.7704V16.425H162.945C162.979 16.425 163.013 16.425 163.044 16.4326C163.074 16.4364 163.101 16.444 163.127 16.4554C163.15 16.4668 163.169 16.482 163.18 16.5047C163.195 16.5275 163.199 16.5579 163.199 16.5958C163.199 16.6452 163.188 16.6831 163.169 16.7059C163.146 16.7324 163.12 16.7476 163.082 16.7552C163.044 16.7666 163.002 16.7704 162.96 16.7704H162.649Z" fill="black"/>
<path d="M152.892 1.29411H148.425V19.685H161.014V15.8254H152.892V1.29411Z" fill="black"/>
<path d="M138.125 1.29411H133.655V19.685H146.243V15.8254H138.125V1.29411Z" fill="black"/>
<path d="M121.932 12.2505H129.708V8.51992H121.932V5.15749H131.256V1.29411H117.465V19.685H131.469V15.8254H121.932V12.2505Z" fill="black"/>
<path d="M111.67 9.72675C113.431 8.86148 114.217 7.67741 114.217 5.62808C114.217 2.89563 112.061 1.29411 107.833 1.29411H100.74V19.685H108.729C113.404 19.685 115.666 17.9772 115.666 14.4023C115.666 11.9317 114.273 10.277 111.674 9.72675H111.67ZM104.968 4.86527H106.729C108.884 4.86527 109.75 5.31309 109.75 6.62618C109.75 8.01897 108.907 8.54649 107.226 8.54649H104.968V4.86907V4.86527ZM107.621 15.8482H104.968V12.0379H107.7C110.091 12.0379 111.116 12.5655 111.116 13.9545C111.116 15.4269 110.327 15.8482 107.621 15.8482Z" fill="black"/>
<path d="M84.072 0.979126C78.2124 0.979126 74.6641 5.2334 74.6641 10.4896C74.6641 15.7457 78.2124 20 84.072 20C89.9316 20 93.4534 15.7419 93.4534 10.4896C93.4534 5.23719 89.8785 0.979126 84.072 0.979126ZM84.072 15.8216C81.1043 15.8216 79.3699 13.5636 79.3699 10.4896C79.3699 7.41556 81.1043 5.0778 84.072 5.0778C87.0398 5.0778 88.7513 7.36243 88.7513 10.4896C88.7513 13.6167 87.017 15.8216 84.072 15.8216Z" fill="black"/>
<path d="M66.6224 15.8482C63.6813 15.8482 62.0038 13.5863 62.0038 10.4896C62.0038 7.39278 63.7344 5.07779 66.7818 5.07779C68.5693 5.07779 69.7496 5.96963 70.4593 7.074L74.0873 4.47058C72.4593 2.42125 70.1974 0.975327 66.7818 0.975327C60.5845 0.975327 57.3018 5.2296 57.3018 10.4858C57.3018 15.7419 60.5579 19.9962 66.7287 19.9962C70.3302 19.9962 72.7173 18.6034 74.4251 16.6565L70.7211 13.8975C69.9317 14.9753 68.6186 15.8444 66.6224 15.8444V15.8482Z" fill="black"/>
<path d="M46.7706 1.29033L38.9414 19.685H43.6701L44.6947 17.0057H52.0761L53.0742 19.685H58.0382L50.5277 1.29033H46.7706ZM46.0875 13.3245L48.4784 6.80836L50.7137 13.3245H46.0875Z" fill="black"/>
<path d="M42.2962 1.29033H26.5581V5.15371H32.1824V19.685H36.6492V5.15371H42.2962V1.29033Z" fill="black"/>
<path d="M7.19545 16.3605C8.22391 15.4042 9.6926 14.3074 11.5066 13.26C11.6698 13.6015 11.7685 13.9772 11.7761 14.3795C11.8065 15.871 10.6224 17.1044 9.13473 17.1347C8.3833 17.1499 7.6926 16.8501 7.19545 16.3643M13.4649 16.6755C18.2808 14.0114 19.9621 11.6129 19.4991 10.4744C19.1271 9.55977 15.9583 10.2467 11.5484 12.611C7.24099 14.9222 4.70209 17.5977 5.08159 18.3947C5.48387 19.2372 9.90892 18.6452 13.4649 16.6755ZM4.40228 2.18975L4.52751 2.04175C1.78748 4.01139 0 7.2296 0 10.8653C0 10.8653 0 10.8729 0 10.8767V19.685H3.31309C3.31309 19.685 3.20683 19.6471 3.19545 19.6471C2.70968 19.4725 2.53131 19.3207 2.33017 19.1157C1.91651 18.6945 1.32448 16.9222 5.29412 13.3435C6.30361 12.4326 7.79886 11.3928 9.33207 10.4934C9.80266 10.2163 10.2543 9.96964 10.4706 9.8444C9.82543 9.90133 8.70588 10.3567 7.77609 10.8425C6.58065 11.4687 4.06452 13.0968 3.13852 14.0949C3.12714 13.9165 3.09677 13.6167 2.89943 12.6983C2.71347 11.8292 2.16698 10.1822 2.25047 8.32638C2.34156 6.29602 3.12334 5.12713 3.90892 4.26186C4.09108 4.06072 4.44023 3.70019 4.32638 3.3852C4.14801 2.91461 4.11006 2.56167 4.40228 2.19355M20.8121 7.73055C21.203 7.90133 21.3586 8.05313 21.3624 8.05693C20.1214 3.41556 15.8899 0 10.8653 0C9.16129 0 7.55218 0.390892 6.11765 1.08918C6.11765 1.08918 6.25427 1.05123 6.32258 1.03605C6.86528 0.937381 7.13093 1.20683 7.48008 1.66603C7.65465 1.89374 8.14421 1.84061 8.3833 1.79886C8.83112 1.71917 9.91651 1.55218 11.3283 1.96205C14.2808 2.81973 16.1252 6.06072 17.5104 6.81973C18.2732 7.23719 18.9602 7.27135 19.6319 7.40038C20.1556 7.49905 20.5427 7.60911 20.8084 7.72676M7.54839 19.685H21.6471V10.8653C21.6471 10.3833 21.6205 10.1176 21.6205 10.1176C20.4478 14.2125 13.0968 18.7628 7.54839 19.685Z" fill="#5D2994"/>
</g>
<defs>
<clipPath id="clip0_414_13905">
<rect width="163.947" height="20" fill="white"/>
</clipPath>
</defs>
</svg>
