<svg version="1.1" xmlns="http://www.w3.org/2000/svg" style="fill:#353535" width="320" height="320" viewBox="0 0 31.936 22.72"><path d="M31.296000 -0.000000 L0.000000 -0.000000 L0.000000 13.632000 L31.296000 13.632000 L31.296000 12.128000 L13.632000 12.128000 L13.632000 10.592000 L31.296000 10.592000 L31.296000 9.088000 L13.632000 9.088000 L13.632000 7.584000 L31.296000 7.584000 L31.296000 6.048000 L13.632000 6.048000 L13.632000 4.544000 L31.296000 4.544000 L31.296000 3.008000 L13.632000 3.008000 L13.632000 1.504000 L31.296000 1.504000 Z M1.664000 1.856000 L1.248000 1.568000 L0.864000 1.856000 L1.024000 1.376000 L0.608000 1.088000 L1.120000 1.088000 L1.248000 0.608000 L1.408000 1.088000 L1.920000 1.088000 L1.504000 1.376000 Z M4.032000 0.608000 L4.192000 1.088000 L4.672000 1.088000 L4.288000 1.376000 L4.448000 1.856000 L4.032000 1.536000 L3.648000 1.856000 L3.808000 1.376000 L3.392000 1.088000 L3.904000 1.088000 Z M6.816000 0.608000 L6.976000 1.088000 L7.456000 1.088000 L7.072000 1.376000 L7.232000 1.856000 L6.816000 1.536000 L6.432000 1.856000 L6.592000 1.376000 L6.176000 1.088000 L6.688000 1.088000 Z M9.600000 0.608000 L9.760000 1.088000 L10.240000 1.088000 L9.856000 1.376000 L10.016000 1.856000 L9.600000 1.536000 L9.216000 1.856000 L9.376000 1.376000 L8.960000 1.088000 L9.440000 1.088000 Z M12.800000 1.856000 L12.384000 1.536000 L12.000000 1.856000 L12.128000 1.376000 L11.744000 1.088000 L12.224000 1.088000 L12.384000 0.608000 L12.544000 1.088000 L13.024000 1.088000 L12.640000 1.376000 Z M2.656000 2.016000 L2.816000 2.496000 L3.296000 2.496000 L2.912000 2.784000 L3.040000 3.232000 L2.656000 2.944000 L2.272000 3.232000 L2.400000 2.784000 L2.016000 2.496000 L2.496000 2.496000 Z M11.392000 3.232000 L11.008000 2.944000 L10.592000 3.232000 L10.752000 2.784000 L10.368000 2.496000 L10.848000 2.496000 L11.008000 2.016000 L11.136000 2.496000 L11.648000 2.496000 L11.232000 2.784000 Z M5.536000 11.072000 L5.536000 8.096000 L2.560000 8.096000 L2.560000 5.536000 L5.536000 5.536000 L5.536000 2.528000 L8.096000 2.528000 L8.096000 5.536000 L11.104000 5.536000 L11.104000 8.096000 L8.096000 8.096000 L8.096000 11.072000 Z M1.664000 4.640000 L1.248000 4.352000 L0.864000 4.640000 L1.024000 4.160000 L0.608000 3.872000 L1.120000 3.872000 L1.248000 3.424000 L1.408000 3.872000 L1.920000 3.872000 L1.504000 4.160000 Z M4.032000 3.424000 L4.192000 3.872000 L4.672000 3.872000 L4.288000 4.160000 L4.448000 4.640000 L4.032000 4.352000 L3.648000 4.640000 L3.808000 4.160000 L3.392000 3.872000 L3.904000 3.872000 Z M9.600000 3.424000 L9.760000 3.872000 L10.240000 3.872000 L9.856000 4.160000 L10.016000 4.640000 L9.600000 4.352000 L9.216000 4.640000 L9.376000 4.160000 L8.960000 3.872000 L9.440000 3.872000 Z M12.800000 4.640000 L12.384000 4.352000 L12.000000 4.640000 L12.128000 4.160000 L11.744000 3.872000 L12.224000 3.872000 L12.384000 3.424000 L12.544000 3.872000 L13.024000 3.872000 L12.640000 4.160000 Z M1.664000 7.424000 L1.248000 7.136000 L0.864000 7.424000 L1.024000 6.976000 L0.608000 6.656000 L1.120000 6.656000 L1.248000 6.208000 L1.408000 6.656000 L1.920000 6.656000 L1.504000 6.976000 Z M12.800000 7.424000 L12.384000 7.136000 L12.000000 7.424000 L12.128000 6.976000 L11.744000 6.656000 L12.224000 6.656000 L12.384000 6.208000 L12.544000 6.656000 L13.024000 6.656000 L12.640000 6.976000 Z M1.664000 10.208000 L1.248000 9.920000 L0.864000 10.208000 L1.024000 9.760000 L0.608000 9.472000 L1.120000 9.472000 L1.248000 8.992000 L1.408000 9.472000 L1.920000 9.472000 L1.504000 9.760000 Z M4.448000 10.208000 L4.032000 9.920000 L3.648000 10.208000 L3.808000 9.760000 L3.392000 9.472000 L3.904000 9.472000 L4.032000 8.992000 L4.192000 9.472000 L4.672000 9.472000 L4.288000 9.760000 Z M10.016000 10.208000 L9.600000 9.920000 L9.216000 10.208000 L9.376000 9.760000 L8.960000 9.472000 L9.440000 9.472000 L9.600000 8.992000 L9.760000 9.472000 L10.240000 9.472000 L9.856000 9.760000 Z M12.800000 10.208000 L12.384000 9.920000 L12.000000 10.208000 L12.128000 9.760000 L11.744000 9.472000 L12.224000 9.472000 L12.384000 8.992000 L12.544000 9.472000 L13.024000 9.472000 L12.640000 9.760000 Z M2.656000 11.328000 L2.272000 11.616000 L2.400000 11.136000 L2.016000 10.848000 L2.496000 10.848000 L2.656000 10.400000 L2.816000 10.848000 L3.296000 10.848000 L2.912000 11.136000 L3.040000 11.616000 Z M11.008000 11.328000 L10.592000 11.616000 L10.752000 11.136000 L10.368000 10.848000 L10.848000 10.848000 L11.008000 10.400000 L11.136000 10.848000 L11.648000 10.848000 L11.232000 11.136000 L11.392000 11.616000 Z M1.248000 12.736000 L0.864000 13.024000 L1.024000 12.544000 L0.608000 12.256000 L1.120000 12.256000 L1.248000 11.776000 L1.408000 12.256000 L1.920000 12.256000 L1.504000 12.544000 L1.664000 13.024000 Z M4.032000 12.736000 L3.648000 13.024000 L3.808000 12.544000 L3.392000 12.256000 L3.904000 12.256000 L4.032000 11.776000 L4.192000 12.256000 L4.672000 12.256000 L4.288000 12.544000 L4.448000 13.024000 Z M6.816000 12.736000 L6.432000 13.024000 L6.592000 12.544000 L6.176000 12.256000 L6.688000 12.256000 L6.816000 11.776000 L6.976000 12.256000 L7.456000 12.256000 L7.072000 12.544000 L7.232000 13.024000 Z M9.600000 12.736000 L9.216000 13.024000 L9.376000 12.544000 L8.960000 12.256000 L9.440000 12.256000 L9.600000 11.776000 L9.760000 12.256000 L10.240000 12.256000 L9.856000 12.544000 L10.016000 13.024000 Z M12.384000 12.736000 L12.000000 13.024000 L12.128000 12.544000 L11.744000 12.256000 L12.224000 12.256000 L12.384000 11.776000 L12.544000 12.256000 L13.024000 12.256000 L12.640000 12.544000 L12.800000 13.024000 Z M31.264000 16.672000 L31.264000 15.136000 L0.000000 15.136000 L0.000000 16.672000 Z M31.296000 19.680000 L31.296000 18.176000 L0.000000 18.176000 L0.000000 19.680000 Z M31.296000 22.720000 L31.296000 21.216000 L0.000000 21.216000 L0.000000 22.720000 Z M31.936000 22.720000" /></svg>